<svg xmlns="http://www.w3.org/2000/svg" width="720" height="720" viewBox="0 0 412 412" role="img" aria-labelledby="title desc">
    <title id="title">Adtech niche artwork</title>
    <desc id="desc">Soft thematic visual for the Adtech niche.</desc>
    <defs>
        <linearGradient id="bg" x1="0" y1="0" x2="1" y2="1">
            <stop offset="0%" stop-color="#FFE7B8"/>
            <stop offset="100%" stop-color="#BDE7FF"/>
        </linearGradient>
        <radialGradient id="glow" cx="72%" cy="22%" r="70%">
            <stop offset="0%" stop-color="#ffffff" stop-opacity=".58"/>
            <stop offset="100%" stop-color="#ffffff" stop-opacity="0"/>
        </radialGradient>
        <filter id="softShadow" x="-20%" y="-20%" width="140%" height="140%">
            <feDropShadow dx="0" dy="18" stdDeviation="20" flood-color="#1f2937" flood-opacity=".12"/>
        </filter>
    </defs>
    <rect width="412" height="412" rx="54" fill="url(#bg)"/>
    <rect width="412" height="412" rx="54" fill="url(#glow)"/>
    <path d="M-20 324 C 72 288, 142 348, 228 318 S 346 282, 432 326 V412 H-20 Z" fill="#ffffff" opacity=".2"/>
    <g filter="url(#softShadow)">
        <path d="M112 220 L238 172 V250 L112 220 Z" fill="#fff" opacity=".86"/><rect x="88" y="198" width="42" height="48" rx="12" fill="#FF8F70" opacity=".58"/><path d="M238 172 C286 184 304 212 292 258" fill="none" stroke="#fff" stroke-width="18" stroke-linecap="round" opacity=".72"/><polyline points="98,270 150,232 198,246 248,178 314,138" fill="none" stroke="#FF8F70" stroke-width="18" stroke-linecap="round" stroke-linejoin="round" opacity=".72"/>
        <circle cx="98" cy="270" r="14" fill="#fff" opacity=".86"/><circle cx="150" cy="232" r="14" fill="#fff" opacity=".86"/><circle cx="198" cy="246" r="14" fill="#fff" opacity=".86"/><circle cx="248" cy="178" r="14" fill="#fff" opacity=".86"/><circle cx="314" cy="138" r="14" fill="#fff" opacity=".86"/>
    </g>
</svg>
