<svg xmlns="http://www.w3.org/2000/svg" width="720" height="720" viewBox="0 0 412 412" role="img" aria-labelledby="title desc">
    <title id="title">AI niche artwork</title>
    <desc id="desc">Soft thematic visual for the AI niche.</desc>
    <defs>
        <linearGradient id="bg" x1="0" y1="0" x2="1" y2="1">
            <stop offset="0%" stop-color="#E8D7FF"/>
            <stop offset="100%" stop-color="#C8F2FF"/>
        </linearGradient>
        <radialGradient id="glow" cx="72%" cy="22%" r="70%">
            <stop offset="0%" stop-color="#ffffff" stop-opacity=".58"/>
            <stop offset="100%" stop-color="#ffffff" stop-opacity="0"/>
        </radialGradient>
        <filter id="softShadow" x="-20%" y="-20%" width="140%" height="140%">
            <feDropShadow dx="0" dy="18" stdDeviation="20" flood-color="#1f2937" flood-opacity=".12"/>
        </filter>
    </defs>
    <rect width="412" height="412" rx="54" fill="url(#bg)"/>
    <rect width="412" height="412" rx="54" fill="url(#glow)"/>
    <path d="M-20 324 C 72 288, 142 348, 228 318 S 346 282, 432 326 V412 H-20 Z" fill="#ffffff" opacity=".2"/>
    <g filter="url(#softShadow)">
        <rect x="128" y="128" width="156" height="156" rx="34" fill="#fff" opacity=".78"/><path d="M92 160 H128 M92 206 H128 M92 252 H128 M284 160 H320 M284 206 H320 M284 252 H320 M160 92 V128 M206 92 V128 M252 92 V128 M160 284 V320 M206 284 V320 M252 284 V320" stroke="#8667E8" stroke-width="12" stroke-linecap="round" opacity=".5"/><circle cx="182" cy="194" r="14" fill="#8667E8" opacity=".44"/><circle cx="230" cy="194" r="14" fill="#8667E8" opacity=".44"/><path d="M176 236 C194 252 218 252 236 236" fill="none" stroke="#8667E8" stroke-width="12" stroke-linecap="round" opacity=".44"/>
    </g>
</svg>
