<svg xmlns="http://www.w3.org/2000/svg" width="720" height="720" viewBox="0 0 412 412" role="img" aria-labelledby="title desc">
    <title id="title">Crypto Web3 niche artwork</title>
    <desc id="desc">Soft thematic visual for the Crypto Web3 niche.</desc>
    <defs>
        <linearGradient id="bg" x1="0" y1="0" x2="1" y2="1">
            <stop offset="0%" stop-color="#DCCBFF"/>
            <stop offset="100%" stop-color="#B9F3FF"/>
        </linearGradient>
        <radialGradient id="glow" cx="72%" cy="22%" r="70%">
            <stop offset="0%" stop-color="#ffffff" stop-opacity=".58"/>
            <stop offset="100%" stop-color="#ffffff" stop-opacity="0"/>
        </radialGradient>
        <filter id="softShadow" x="-20%" y="-20%" width="140%" height="140%">
            <feDropShadow dx="0" dy="18" stdDeviation="20" flood-color="#1f2937" flood-opacity=".12"/>
        </filter>
    </defs>
    <rect width="412" height="412" rx="54" fill="url(#bg)"/>
    <rect width="412" height="412" rx="54" fill="url(#glow)"/>
    <path d="M-20 324 C 72 288, 142 348, 228 318 S 346 282, 432 326 V412 H-20 Z" fill="#ffffff" opacity=".2"/>
    <g filter="url(#softShadow)">
        <path d="M206 92 L310 150 V270 L206 330 L102 270 V150 Z" fill="#fff" opacity=".26"/><path d="M206 130 L274 170 V250 L206 290 L138 250 V170 Z" fill="#fff" opacity=".66"/><circle cx="206" cy="210" r="34" fill="#6D5BFF" opacity=".42"/><path d="M206 130 V290 M138 170 L274 250 M274 170 L138 250" stroke="#6D5BFF" stroke-width="10" opacity=".38"/>
    </g>
</svg>
