<svg xmlns="http://www.w3.org/2000/svg" width="720" height="720" viewBox="0 0 412 412" role="img" aria-labelledby="title desc">
    <title id="title">Education niche artwork</title>
    <desc id="desc">Soft thematic visual for the Education niche.</desc>
    <defs>
        <linearGradient id="bg" x1="0" y1="0" x2="1" y2="1">
            <stop offset="0%" stop-color="#FFE7B7"/>
            <stop offset="100%" stop-color="#D9E8FF"/>
        </linearGradient>
        <radialGradient id="glow" cx="72%" cy="22%" r="70%">
            <stop offset="0%" stop-color="#ffffff" stop-opacity=".58"/>
            <stop offset="100%" stop-color="#ffffff" stop-opacity="0"/>
        </radialGradient>
        <filter id="softShadow" x="-20%" y="-20%" width="140%" height="140%">
            <feDropShadow dx="0" dy="18" stdDeviation="20" flood-color="#1f2937" flood-opacity=".12"/>
        </filter>
    </defs>
    <rect width="412" height="412" rx="54" fill="url(#bg)"/>
    <rect width="412" height="412" rx="54" fill="url(#glow)"/>
    <path d="M-20 324 C 72 288, 142 348, 228 318 S 346 282, 432 326 V412 H-20 Z" fill="#ffffff" opacity=".2"/>
    <g filter="url(#softShadow)">
        <path d="M84 146 C130 118 172 118 206 150 C240 118 282 118 328 146 V292 C282 264 240 264 206 296 C172 264 130 264 84 292 Z" fill="#fff" opacity=".78"/><path d="M206 150 V296" stroke="#F5A94A" stroke-width="12" opacity=".42"/><path d="M118 176 H174 M238 176 H294 M118 210 H166 M238 210 H288" stroke="#F5A94A" stroke-width="10" stroke-linecap="round" opacity=".34"/>
    </g>
</svg>
