<svg xmlns="http://www.w3.org/2000/svg" width="720" height="720" viewBox="0 0 412 412" role="img" aria-labelledby="title desc">
    <title id="title">Entertainment niche artwork</title>
    <desc id="desc">Soft thematic visual for the Entertainment niche.</desc>
    <defs>
        <linearGradient id="bg" x1="0" y1="0" x2="1" y2="1">
            <stop offset="0%" stop-color="#FFD5E5"/>
            <stop offset="100%" stop-color="#FFE5B8"/>
        </linearGradient>
        <radialGradient id="glow" cx="72%" cy="22%" r="70%">
            <stop offset="0%" stop-color="#ffffff" stop-opacity=".58"/>
            <stop offset="100%" stop-color="#ffffff" stop-opacity="0"/>
        </radialGradient>
        <filter id="softShadow" x="-20%" y="-20%" width="140%" height="140%">
            <feDropShadow dx="0" dy="18" stdDeviation="20" flood-color="#1f2937" flood-opacity=".12"/>
        </filter>
    </defs>
    <rect width="412" height="412" rx="54" fill="url(#bg)"/>
    <rect width="412" height="412" rx="54" fill="url(#glow)"/>
    <path d="M-20 324 C 72 288, 142 348, 228 318 S 346 282, 432 326 V412 H-20 Z" fill="#ffffff" opacity=".2"/>
    <g filter="url(#softShadow)">
        <path d="M104 142 H308 V282 H104 Z" fill="#fff" opacity=".72"/><path d="M104 186 C130 186 130 238 104 238 M308 186 C282 186 282 238 308 238" stroke="#E86CA0" stroke-width="14" stroke-linecap="round" opacity=".44"/><path d="M206 164 L222 200 L260 204 L230 228 L238 266 L206 246 L174 266 L182 228 L152 204 L190 200 Z" fill="#E86CA0" opacity=".38"/>
    </g>
</svg>
