<svg xmlns="http://www.w3.org/2000/svg" width="720" height="720" viewBox="0 0 412 412" role="img" aria-labelledby="title desc">
    <title id="title">Gaming niche artwork</title>
    <desc id="desc">Soft thematic visual for the Gaming niche.</desc>
    <defs>
        <linearGradient id="bg" x1="0" y1="0" x2="1" y2="1">
            <stop offset="0%" stop-color="#D8D0FF"/>
            <stop offset="100%" stop-color="#FFCED8"/>
        </linearGradient>
        <radialGradient id="glow" cx="72%" cy="22%" r="70%">
            <stop offset="0%" stop-color="#ffffff" stop-opacity=".58"/>
            <stop offset="100%" stop-color="#ffffff" stop-opacity="0"/>
        </radialGradient>
        <filter id="softShadow" x="-20%" y="-20%" width="140%" height="140%">
            <feDropShadow dx="0" dy="18" stdDeviation="20" flood-color="#1f2937" flood-opacity=".12"/>
        </filter>
    </defs>
    <rect width="412" height="412" rx="54" fill="url(#bg)"/>
    <rect width="412" height="412" rx="54" fill="url(#glow)"/>
    <path d="M-20 324 C 72 288, 142 348, 228 318 S 346 282, 432 326 V412 H-20 Z" fill="#ffffff" opacity=".2"/>
    <g filter="url(#softShadow)">
        <path d="M112 180 C122 140 166 136 206 160 C246 136 290 140 300 180 L322 258 C330 288 296 310 270 286 L236 254 H176 L142 286 C116 310 82 288 90 258 Z" fill="#fff" opacity=".78"/><path d="M140 218 H184 M162 196 V240" stroke="#7B65E8" stroke-width="14" stroke-linecap="round" opacity=".52"/><circle cx="248" cy="214" r="12" fill="#7B65E8" opacity=".48"/><circle cx="282" cy="232" r="12" fill="#7B65E8" opacity=".48"/>
    </g>
</svg>
