<svg xmlns="http://www.w3.org/2000/svg" width="720" height="720" viewBox="0 0 412 412" role="img" aria-labelledby="title desc">
    <title id="title">HR Recruitment niche artwork</title>
    <desc id="desc">Soft thematic visual for the HR Recruitment niche.</desc>
    <defs>
        <linearGradient id="bg" x1="0" y1="0" x2="1" y2="1">
            <stop offset="0%" stop-color="#F7D8E7"/>
            <stop offset="100%" stop-color="#DCEBFF"/>
        </linearGradient>
        <radialGradient id="glow" cx="72%" cy="22%" r="70%">
            <stop offset="0%" stop-color="#ffffff" stop-opacity=".58"/>
            <stop offset="100%" stop-color="#ffffff" stop-opacity="0"/>
        </radialGradient>
        <filter id="softShadow" x="-20%" y="-20%" width="140%" height="140%">
            <feDropShadow dx="0" dy="18" stdDeviation="20" flood-color="#1f2937" flood-opacity=".12"/>
        </filter>
    </defs>
    <rect width="412" height="412" rx="54" fill="url(#bg)"/>
    <rect width="412" height="412" rx="54" fill="url(#glow)"/>
    <path d="M-20 324 C 72 288, 142 348, 228 318 S 346 282, 432 326 V412 H-20 Z" fill="#ffffff" opacity=".2"/>
    <g filter="url(#softShadow)">
        <circle cx="160" cy="142" r="38" fill="#fff" opacity=".76"/><circle cx="260" cy="158" r="32" fill="#fff" opacity=".62"/><path d="M94 282 C108 222 144 202 186 202 C228 202 264 224 278 282 Z" fill="#fff" opacity=".68"/><path d="M218 282 C226 238 254 218 290 218 C322 218 344 238 352 282 Z" fill="#fff" opacity=".42"/><path d="M284 104 L322 142 L360 92" fill="none" stroke="#D86F9E" stroke-width="16" stroke-linecap="round" stroke-linejoin="round" opacity=".56"/>
    </g>
</svg>
