<svg xmlns="http://www.w3.org/2000/svg" width="720" height="720" viewBox="0 0 412 412" role="img" aria-labelledby="title desc">
    <title id="title">Insurance niche artwork</title>
    <desc id="desc">Soft thematic visual for the Insurance niche.</desc>
    <defs>
        <linearGradient id="bg" x1="0" y1="0" x2="1" y2="1">
            <stop offset="0%" stop-color="#DDE7F4"/>
            <stop offset="100%" stop-color="#D6F3E2"/>
        </linearGradient>
        <radialGradient id="glow" cx="72%" cy="22%" r="70%">
            <stop offset="0%" stop-color="#ffffff" stop-opacity=".58"/>
            <stop offset="100%" stop-color="#ffffff" stop-opacity="0"/>
        </radialGradient>
        <filter id="softShadow" x="-20%" y="-20%" width="140%" height="140%">
            <feDropShadow dx="0" dy="18" stdDeviation="20" flood-color="#1f2937" flood-opacity=".12"/>
        </filter>
    </defs>
    <rect width="412" height="412" rx="54" fill="url(#bg)"/>
    <rect width="412" height="412" rx="54" fill="url(#glow)"/>
    <path d="M-20 324 C 72 288, 142 348, 228 318 S 346 282, 432 326 V412 H-20 Z" fill="#ffffff" opacity=".2"/>
    <g filter="url(#softShadow)">
        <path d="M96 188 C126 98 286 98 316 188 C276 166 246 166 206 188 C166 166 136 166 96 188 Z" fill="#fff" opacity=".76"/><path d="M206 188 V292 C206 320 170 316 170 292" fill="none" stroke="#5F84B5" stroke-width="16" stroke-linecap="round" opacity=".52"/><path d="M292 230 L330 250 V294 C330 318 310 332 292 338 C274 332 254 318 254 294 V250 Z" fill="#fff" opacity=".44"/>
    </g>
</svg>
