<svg xmlns="http://www.w3.org/2000/svg" width="720" height="720" viewBox="0 0 412 412" role="img" aria-labelledby="title desc">
    <title id="title">Retail niche artwork</title>
    <desc id="desc">Soft thematic visual for the Retail niche.</desc>
    <defs>
        <linearGradient id="bg" x1="0" y1="0" x2="1" y2="1">
            <stop offset="0%" stop-color="#FFD8CC"/>
            <stop offset="100%" stop-color="#D8ECFF"/>
        </linearGradient>
        <radialGradient id="glow" cx="72%" cy="22%" r="70%">
            <stop offset="0%" stop-color="#ffffff" stop-opacity=".58"/>
            <stop offset="100%" stop-color="#ffffff" stop-opacity="0"/>
        </radialGradient>
        <filter id="softShadow" x="-20%" y="-20%" width="140%" height="140%">
            <feDropShadow dx="0" dy="18" stdDeviation="20" flood-color="#1f2937" flood-opacity=".12"/>
        </filter>
    </defs>
    <rect width="412" height="412" rx="54" fill="url(#bg)"/>
    <rect width="412" height="412" rx="54" fill="url(#glow)"/>
    <path d="M-20 324 C 72 288, 142 348, 228 318 S 346 282, 432 326 V412 H-20 Z" fill="#ffffff" opacity=".2"/>
    <g filter="url(#softShadow)">
        <path d="M104 156 H308 L292 292 H120 Z" fill="#fff" opacity=".74"/><path d="M116 156 L138 106 H274 L296 156" fill="#fff" opacity=".84"/><path d="M138 106 V156 M184 106 V156 M230 106 V156 M274 106 V156" stroke="#E16F63" stroke-width="10" opacity=".38"/><rect x="164" y="222" width="84" height="70" rx="18" fill="#E16F63" opacity=".22"/>
    </g>
</svg>
