<svg xmlns="http://www.w3.org/2000/svg" width="720" height="720" viewBox="0 0 412 412" role="img" aria-labelledby="title desc">
    <title id="title">Saas niche artwork</title>
    <desc id="desc">Soft thematic visual for the Saas niche.</desc>
    <defs>
        <linearGradient id="bg" x1="0" y1="0" x2="1" y2="1">
            <stop offset="0%" stop-color="#D9E7FF"/>
            <stop offset="100%" stop-color="#C8F7E3"/>
        </linearGradient>
        <radialGradient id="glow" cx="72%" cy="22%" r="70%">
            <stop offset="0%" stop-color="#ffffff" stop-opacity=".58"/>
            <stop offset="100%" stop-color="#ffffff" stop-opacity="0"/>
        </radialGradient>
        <filter id="softShadow" x="-20%" y="-20%" width="140%" height="140%">
            <feDropShadow dx="0" dy="18" stdDeviation="20" flood-color="#1f2937" flood-opacity=".12"/>
        </filter>
    </defs>
    <rect width="412" height="412" rx="54" fill="url(#bg)"/>
    <rect width="412" height="412" rx="54" fill="url(#glow)"/>
    <path d="M-20 324 C 72 288, 142 348, 228 318 S 346 282, 432 326 V412 H-20 Z" fill="#ffffff" opacity=".2"/>
    <g filter="url(#softShadow)">
        <rect x="112" y="108" width="188" height="126" rx="18" fill="#fff" opacity=".84"/>
        <rect x="132" y="130" width="148" height="82" rx="12" fill="#4D7CEB" opacity=".22"/>
        <path d="M88 266 H324 L294 226 H118 Z" fill="#fff" opacity=".76"/><rect x="150" y="150" width="38" height="38" rx="10" fill="#fff" opacity=".82"/><rect x="204" y="150" width="60" height="16" rx="8" fill="#fff" opacity=".72"/><rect x="204" y="180" width="46" height="16" rx="8" fill="#fff" opacity=".62"/>
    </g>
</svg>
