<svg xmlns="http://www.w3.org/2000/svg" width="720" height="720" viewBox="0 0 412 412" role="img" aria-labelledby="title desc">
    <title id="title">Science niche artwork</title>
    <desc id="desc">Soft thematic visual for the Science niche.</desc>
    <defs>
        <linearGradient id="bg" x1="0" y1="0" x2="1" y2="1">
            <stop offset="0%" stop-color="#D7F3FF"/>
            <stop offset="100%" stop-color="#E5DDFF"/>
        </linearGradient>
        <radialGradient id="glow" cx="72%" cy="22%" r="70%">
            <stop offset="0%" stop-color="#ffffff" stop-opacity=".58"/>
            <stop offset="100%" stop-color="#ffffff" stop-opacity="0"/>
        </radialGradient>
        <filter id="softShadow" x="-20%" y="-20%" width="140%" height="140%">
            <feDropShadow dx="0" dy="18" stdDeviation="20" flood-color="#1f2937" flood-opacity=".12"/>
        </filter>
    </defs>
    <rect width="412" height="412" rx="54" fill="url(#bg)"/>
    <rect width="412" height="412" rx="54" fill="url(#glow)"/>
    <path d="M-20 324 C 72 288, 142 348, 228 318 S 346 282, 432 326 V412 H-20 Z" fill="#ffffff" opacity=".2"/>
    <g filter="url(#softShadow)">
        <path d="M170 94 H242 M190 94 V172 L128 292 C116 316 132 334 158 334 H254 C280 334 296 316 284 292 L222 172 V94" fill="none" stroke="#fff" stroke-width="18" stroke-linecap="round" stroke-linejoin="round" opacity=".84"/><path d="M150 282 C178 258 234 304 262 274" fill="none" stroke="#4AA9C8" stroke-width="18" stroke-linecap="round" opacity=".42"/><circle cx="176" cy="250" r="12" fill="#4AA9C8" opacity=".38"/><circle cx="234" cy="230" r="10" fill="#4AA9C8" opacity=".34"/>
    </g>
</svg>
